<svg width="32" height="32" fill="none" xmlns="http://www.w3.org/2000/svg">
	<path
		d="M29.5 15h-1.043A12.018 12.018 0 0017.5 4.043V3a1 1 0 00-2 0v1.043A12.018 12.018 0 004.543 15H3.5a1 1 0 000 2h1.043A12.018 12.018 0 0015.5 27.957V29a1 1 0 002 0v-1.043A12.018 12.018 0 0028.457 17H29.5a1 1 0 000-2zm-12 10.95V25a1 1 0 00-2 0v.95A10.019 10.019 0 016.55 17h.95a1 1 0 000-2h-.95a10.019 10.019 0 018.95-8.95V7a1 1 0 002 0v-.95A10.019 10.019 0 0126.45 15h-.95a1 1 0 000 2h.95a10.019 10.019 0 01-8.95 8.95zM16.5 11a5 5 0 100 10 5 5 0 000-10zm0 8a3 3 0 110-5.999 3 3 0 010 5.999z"
		fill="#fff" />
</svg>