<svg width="30" height="30" viewBox="0 0 30 30" fill="none" xmlns="http://www.w3.org/2000/svg">
<g clip-path="url(#clip0_3148_4819)">
<path opacity="0.6" d="M-0.00195312 3V27C-0.00195312 28.657 1.34105 30 2.99805 30H26.998C28.655 30 29.998 28.657 29.998 27V3C29.998 1.343 28.655 0 26.998 0H2.99805C1.34105 0 -0.00195312 1.343 -0.00195312 3V3Z" fill="#252527"/>
<path opacity="0.4" d="M11.374 6.7002L13.333 8.6592L11.374 10.6182L9.41504 8.6592L11.374 6.7002Z" fill="white"/>
<path opacity="0.4" d="M16.985 14.834L18.944 16.793L16.985 18.752L15.026 16.793L16.985 14.834Z" fill="white"/>
<path opacity="0.4" d="M16.056 19.519L18.015 21.478L16.056 23.437L14.097 21.478L16.056 19.519Z" fill="white"/>
<path opacity="0.4" d="M21.626 22.6108L23.585 24.5698L21.626 26.5288L19.667 24.5698L21.626 22.6108Z" fill="white"/>
<path opacity="0.4" d="M25.164 19.604L27.123 21.563L25.164 23.522L23.205 21.563L25.164 19.604Z" fill="white"/>
<path opacity="0.4" d="M19.499 17.3618L18.989 18.2228L22.617 20.3708L23.127 19.5098L19.499 17.3618Z" fill="white"/>
<path opacity="0.4" d="M23.78 22.7192L23.028 23.6322L23.8 24.2682L24.552 23.3552L23.78 22.7192Z" fill="white"/>
<path opacity="0.4" d="M16.7129 21.6709L16.1479 22.4959L19.1969 24.5849L19.7619 23.7599L16.7129 21.6709Z" fill="white"/>
<path opacity="0.4" d="M15.403 18.0991L14.897 19.4401L15.832 19.7931L16.338 18.4521L15.403 18.0991Z" fill="white"/>
<path opacity="0.4" d="M13.32 10.2041L12.516 10.7991L15.607 14.9741L16.411 14.3791L13.32 10.2041Z" fill="white"/>
<path opacity="0.4" d="M7.14702 5.81982L6.65002 6.68782L9.37302 8.24782L9.87002 7.37982L7.14702 5.81982Z" fill="white"/>
<path opacity="0.4" d="M4.83095 3.47607L6.78995 5.43507L4.83095 7.39407L2.87195 5.43507L4.83095 3.47607Z" fill="white"/>
</g>
<defs>
<clipPath id="clip0_3148_4819">
<rect width="30" height="30" fill="white"/>
</clipPath>
</defs>
</svg>
