<svg width="24" height="24" viewBox="0 0 24 24" fill="none" xmlns="http://www.w3.org/2000/svg">
<path d="M24 12C24 18.627 18.627 24 12 24C5.373 24 0 18.627 0 12C0 5.373 5.373 0 12 0C18.627 0 24 5.373 24 12Z" fill="white"/>
<path d="M19.5 12C19.5 16.4178 15.979 20 13 20C9.80752 20 10 20 11.883 19.1111C13.766 18.2222 15.5 15.9289 15.5 12L12.5 12C12.5 12 17 6.5 17.5 6.5C18 6.5 22.5 12 22.5 12L19.5 12ZM4.5 12C4.5 7.58222 8.021 4 11 4C14.2006 4 14 4 12.108 4.88889C10.216 5.77778 8.5 8.07111 8.5 12L11.5 12C11.5 12 7 17.5 6.5 17.5C6 17.5 1.5 12 1.5 12L4.5 12Z" fill="black"/>
</svg>
