<svg width="20" height="20" viewBox="0 0 20 20" fill="none" xmlns="http://www.w3.org/2000/svg">
<path d="M20 9.00398H18.008V1.99203H11.006V0H9.00398V1.99203H1.99203V9.00398H0V11.006H1.99203V18.008H9.00398V20H11.006V18.008H18.008V11.006H20V9.00398ZM16.006 16.006H11.006V14.004H9.00398V16.006H3.98406V11.006H6.00598V9.00398H3.98406V3.98406H9.00398V6.00598H11.006V3.98406H16.006V9.00398H14.004V11.006H16.006V16.006ZM11.006 10.01C11.006 10.2741 10.901 10.5275 10.7143 10.7143C10.5275 10.901 10.2741 11.006 10.01 11.006C9.46215 11.006 9.00398 10.5578 9.00398 10.01C9.00398 9.46215 9.46215 9.00398 10.01 9.00398C10.5578 9.00398 11.006 9.46215 11.006 10.01Z" fill="#95959D"/>
</svg>
