<svg width="12" height="19" viewBox="0 0 12 19" fill="none" xmlns="http://www.w3.org/2000/svg">
<path opacity="0.4" d="M5.84195 0C2.3798 0 0 2.24971 0 5.20693C0 7.41619 5.89053 18.3871 5.89053 18.3871C5.89053 18.3871 11.7811 8.26054 11.7811 5.20693C11.7811 3.06183 10.0282 0 5.84195 0ZM5.88886 2.65677C6.76352 2.65661 7.60245 2.95937 8.22108 3.49843C8.83971 4.03748 9.18737 4.76865 9.18762 5.53117C9.18771 5.90886 9.10246 6.28285 8.93671 6.6318C8.77097 6.98075 8.52799 7.29786 8.22165 7.56492C7.91532 7.83199 7.55163 8.04382 7.15136 8.18831C6.7511 8.33281 6.32208 8.40711 5.88886 8.40703C5.0142 8.40681 4.17548 8.1037 3.55716 7.56438C2.93885 7.02505 2.59158 6.29369 2.59177 5.53117C2.59202 4.7689 2.93947 4.0379 3.55774 3.49888C4.17601 2.95987 5.01449 2.657 5.88886 2.65677Z" fill="white"/>
</svg>
