<svg width="32" height="20" viewBox="0 0 32 20" fill="none" xmlns="http://www.w3.org/2000/svg">
<path d="M19.0648 6.97736L17.6478 8.3943L22.497 8.82047L21.9312 4.10852L20.6593 5.38281L20.5533 5.48908L20.4471 5.38291C17.8669 2.80267 13.6727 2.80267 11.0925 5.38291C8.51226 7.96315 8.51226 12.1573 11.0925 14.7375C13.6373 17.2823 17.7519 17.3173 20.3398 14.8424L18.957 13.4596C17.1298 15.1749 14.2598 15.1401 12.4748 13.3552C10.6544 11.5347 10.6544 8.58568 12.4748 6.76523C14.2953 4.94478 17.2443 4.94478 19.0648 6.76523L19.1708 6.8713L19.0648 6.97736Z" fill="url(#paint0_linear_4140_6303)"/>
<path d="M19.0648 6.97736L17.6478 8.3943L22.497 8.82047L21.9312 4.10852L20.6593 5.38281L20.5533 5.48908L20.4471 5.38291C17.8669 2.80267 13.6727 2.80267 11.0925 5.38291C8.51226 7.96315 8.51226 12.1573 11.0925 14.7375C13.6373 17.2823 17.7519 17.3173 20.3398 14.8424L18.957 13.4596C17.1298 15.1749 14.2598 15.1401 12.4748 13.3552C10.6544 11.5347 10.6544 8.58568 12.4748 6.76523C14.2953 4.94478 17.2443 4.94478 19.0648 6.76523L19.1708 6.8713L19.0648 6.97736Z" stroke="url(#paint1_linear_4140_6303)" stroke-width="0.3" style="mix-blend-mode:screen"/>
<defs>
<linearGradient id="paint0_linear_4140_6303" x1="10.9864" y1="14.8436" x2="22.0445" y2="3.78548" gradientUnits="userSpaceOnUse">
<stop stop-color="#4E4E4E"/>
<stop offset="1" stop-color="#999999"/>
</linearGradient>
<linearGradient id="paint1_linear_4140_6303" x1="22.0445" y1="3.78549" x2="9.08918" y2="16.7408" gradientUnits="userSpaceOnUse">
<stop stop-color="#7E7E8A" stop-opacity="0.5"/>
<stop offset="1" stop-color="#252527" stop-opacity="0.28"/>
</linearGradient>
</defs>
</svg>
