<svg width="80" height="40" viewBox="0 0 80 40" fill="none" xmlns="http://www.w3.org/2000/svg">
<path d="M44.7916 31.7998L44.7916 33.5107L40.0144 36.0009L35.2372 33.5107V31.7998L40.0144 34.3079L44.7916 31.7998Z" fill="white" stroke="#C6C6C9" stroke-width="1.25" stroke-linecap="round" stroke-linejoin="round"/>
<path d="M27.69 15.9003L26.2083 15.0449L26.4404 9.6626L30.9855 6.77051L32.4672 7.62585L27.9065 10.509L27.69 15.9003Z" fill="white" stroke="#C6C6C9" stroke-width="1.25" stroke-linecap="round" stroke-linejoin="round"/>
<path d="M52.339 15.9003L53.8207 15.0449L53.5886 9.6626L49.0435 6.77051L47.5618 7.62585L52.1225 10.509L52.339 15.9003Z" fill="white" stroke="#C6C6C9" stroke-width="1.25" stroke-linecap="round" stroke-linejoin="round"/>
<path opacity="0.75" d="M0 20H21.833L25.0602 23.2273" stroke="url(#paint0_linear_3067_5476)" stroke-width="1.4737"/>
<path opacity="0.25" d="M26.0726 21.3999L28.5785 22.8467H34.002L35.6629 21.8878" stroke="white" stroke-width="0.73761"/>
<path opacity="0.25" d="M53.9276 21.3999L51.4217 22.8467H45.9982L44.3373 21.8878" stroke="white" stroke-width="0.73761"/>
<path d="M40.0002 20.8077C40.4557 20.8077 40.8249 20.4384 40.8249 19.9829C40.8249 19.5274 40.4557 19.1582 40.0002 19.1582C39.5447 19.1582 39.1754 19.5274 39.1754 19.9829C39.1754 20.4384 39.5447 20.8077 40.0002 20.8077Z" fill="white" stroke="white" stroke-width="0.23926" stroke-linecap="round" stroke-linejoin="round"/>
<path opacity="0.75" d="M40.0002 24.0248C42.2324 24.0248 44.0419 22.2152 44.0419 19.983C44.0419 17.7509 42.2324 15.9414 40.0002 15.9414C37.768 15.9414 35.9585 17.7509 35.9585 19.983C35.9585 22.2152 37.768 24.0248 40.0002 24.0248Z" stroke="#C6C6C9" stroke-width="1.4737" stroke-linecap="round" stroke-linejoin="round"/>
<path opacity="0.75" d="M79.9997 20H58.1667L54.9395 23.2273" stroke="url(#paint1_linear_3067_5476)" stroke-width="1.4737"/>
<defs>
<linearGradient id="paint0_linear_3067_5476" x1="25.3569" y1="25.211" x2="0.746245" y2="25.211" gradientUnits="userSpaceOnUse">
<stop stop-color="white"/>
<stop offset="1" stop-color="white" stop-opacity="0"/>
</linearGradient>
<linearGradient id="paint1_linear_3067_5476" x1="54.6384" y1="25.211" x2="79.249" y2="25.211" gradientUnits="userSpaceOnUse">
<stop stop-color="white"/>
<stop offset="1" stop-color="white" stop-opacity="0"/>
</linearGradient>
</defs>
</svg>
