<svg width="19.468" height="30" version="1.1" viewBox="0 0 19.468 30" xmlns="http://www.w3.org/2000/svg" xmlns:xlink="http://www.w3.org/1999/xlink">
 <g transform="translate(-206.5 -62.686)">
  <path d="m211.87 62.686c-1.309 0-2.3231 0.96-2.501 2.3002v1.8543l0.21695 10.143c-0.29204 0.1587-0.73517 0.4489-1.3023 0.964-1.9623 1.7833-2.6046 6.0969-0.38855 9.4355 2.4669 3.7165 5.3574 5.3028 9.6658 5.3028 4.5647 0 6.0918-2.2909 7.2651-4.6374 1.1284-2.2568 1.1414-10.9 1.1414-11.266 3.7e-4 -1.1555-1.0945-2.1686-2.3429-2.1686-0.14711 0-0.52043 0.05-0.90429 0.1699-0.0979-1.3059-1.1925-2.3386-2.5229-2.3386-0.59892 0-1.1501 0.2093-1.5838 0.5585-0.3206-0.9788-1.1682-1.6428-2.2178-1.6428-0.69506 0-1.3135 0.2859-1.7545 0.7529l-0.23964-6.7167c0-1.5456-1.0883-2.7109-2.5316-2.7109zm3.4e-4 1.0843c0.85229 0 1.4472 0.669 1.4476 1.6461l0.36146 10.12c0.01 0.278 0.22879 0.5036 0.50602 0.5216 0.27145 0.017 0.52372-0.1764 0.57034-0.4507l0.27432-1.6265c5e-3 -0.03 8e-3 -0.06 8e-3 -0.09 0-0.8241 0.5841-1.4458 1.3587-1.4458 0.87362 0 1.2716 0.7493 1.2716 1.4458v1.0844c0 0.2996 0.24287 0.5421 0.54215 0.5421 0.29927 0 0.54214-0.2425 0.54214-0.5421 0-0.7974 0.64847-1.4458 1.4458-1.4458s1.4458 0.6484 1.4458 1.4458v2.3494c0 0.2993 0.24294 0.5421 0.54221 0.5421 0.29928 0 0.54215-0.2428 0.54215-0.5421v-1.3808c0.21687-0.1055 0.64194-0.2461 0.89712-0.2461 0.64699 0 1.2586 0.527 1.2586 1.0843-3.8e-4 2.4279-0.18546 9.0973-1.0276 10.782-1.1046 2.2092-2.3404 4.038-6.2949 4.038-3.9528 0-6.4912-1.3958-8.7622-4.818-1.3232-1.9938-1.8976-6.1142 0.21434-8.0339 0.22807-0.2071 0.42939-0.3694 0.59999-0.4955l0.081 3.7804c7e-3 0.2992 0.24506 0.5446 0.55373 0.5305 0.29928-0.01 0.53671-0.254 0.53057-0.5537l-0.35567-16.614c0-0.9575 0.59498-1.6266 1.4473-1.6266z" fill="#fff" stroke-width=".035298"/>
 </g>
</svg>
