<svg width="24" height="24" viewBox="0 0 24 24" fill="none" xmlns="http://www.w3.org/2000/svg">
<rect width="24" height="24" fill="white" fill-opacity="0.01"/>
<path d="M12.75 15.25C12.75 15.3983 12.706 15.5433 12.6236 15.6667C12.5412 15.79 12.4241 15.8861 12.287 15.9429C12.15 15.9997 11.9992 16.0145 11.8537 15.9856C11.7082 15.9566 11.5746 15.8852 11.4697 15.7803C11.3648 15.6754 11.2934 15.5418 11.2644 15.3963C11.2355 15.2508 11.2503 15.1 11.3071 14.963C11.3639 14.8259 11.46 14.7088 11.5833 14.6264C11.7067 14.544 11.8517 14.5 12 14.5C12.1989 14.5 12.3897 14.579 12.5303 14.7197C12.671 14.8603 12.75 15.0511 12.75 15.25ZM12 8.5C10.6213 8.5 9.5 9.50938 9.5 10.75V11C9.5 11.1326 9.55268 11.2598 9.64645 11.3536C9.74022 11.4473 9.86739 11.5 10 11.5C10.1326 11.5 10.2598 11.4473 10.3536 11.3536C10.4473 11.2598 10.5 11.1326 10.5 11V10.75C10.5 10.0625 11.1731 9.5 12 9.5C12.8269 9.5 13.5 10.0625 13.5 10.75C13.5 11.4375 12.8269 12 12 12C11.8674 12 11.7402 12.0527 11.6464 12.1464C11.5527 12.2402 11.5 12.3674 11.5 12.5V13C11.5 13.1326 11.5527 13.2598 11.6464 13.3536C11.7402 13.4473 11.8674 13.5 12 13.5C12.1326 13.5 12.2598 13.4473 12.3536 13.3536C12.4473 13.2598 12.5 13.1326 12.5 13V12.955C13.64 12.7456 14.5 11.8362 14.5 10.75C14.5 9.50938 13.3788 8.5 12 8.5ZM18.5 12C18.5 13.2856 18.1188 14.5423 17.4046 15.6112C16.6903 16.6801 15.6752 17.5132 14.4874 18.0052C13.2997 18.4972 11.9928 18.6259 10.7319 18.3751C9.47104 18.1243 8.31285 17.5052 7.40381 16.5962C6.49477 15.6872 5.8757 14.529 5.6249 13.2681C5.37409 12.0072 5.50282 10.7003 5.99479 9.51256C6.48676 8.32484 7.31988 7.30968 8.3888 6.59545C9.45772 5.88122 10.7144 5.5 12 5.5C13.7234 5.50182 15.3756 6.18722 16.5942 7.40582C17.8128 8.62441 18.4982 10.2767 18.5 12ZM17.5 12C17.5 10.9122 17.1774 9.84883 16.5731 8.94436C15.9687 8.03989 15.1098 7.33494 14.1048 6.91866C13.0998 6.50238 11.9939 6.39346 10.927 6.60568C9.86011 6.8179 8.8801 7.34172 8.11092 8.11091C7.34173 8.8801 6.8179 9.86011 6.60568 10.927C6.39347 11.9939 6.50238 13.0998 6.91867 14.1048C7.33495 15.1098 8.0399 15.9687 8.94437 16.5731C9.84884 17.1774 10.9122 17.5 12 17.5C13.4582 17.4983 14.8562 16.9184 15.8873 15.8873C16.9184 14.8562 17.4983 13.4582 17.5 12Z" fill="#B1B1B1"/>
</svg>
